<?xml version="1.0" encoding="utf-8"?>
<!-- Generator: Adobe Illustrator 24.3.0, SVG Export Plug-In . SVG Version: 6.00 Build 0)  -->
<svg version="1.1" id="Layer_1" xmlns="http://www.w3.org/2000/svg" xmlns:xlink="http://www.w3.org/1999/xlink" x="0px" y="0px"
	 viewBox="0 0 150 150" style="enable-background:new 0 0 150 150;" xml:space="preserve">
<style type="text/css">
	.st0{fill:#C7F136;}
	.st1{fill:#2E3192;}
	.st2{fill:none;stroke:#000000;stroke-width:0.5;stroke-miterlimit:10;}
</style>
<polygon class="st0" points="945,820.5 945,783.7 983.1,783.7 1010.2,810.8 1037.8,783.2 1074.9,783.2 1074.9,821.5 1048,848.4 
	1075.9,876.3 1075.9,914.1 1037.8,914.1 1009.8,886.1 982.8,913.1 945,913.1 945,876 972.9,848.1 "/>
<g>
	<g>
		<path class="st1" d="M-630.3,75.4h14.9v29.5l27.4-29.5h17.9l-27.5,28.6l28.7,38.9h-17.9l-20.9-28.8l-7.8,8.1v20.6h-14.8V75.4z"/>
		<path class="st1" d="M-559.9,75.4h50.8v13.2h-36.2v13.7h31.8v13.2h-31.8v14.2h36.6v13.2h-51.2V75.4z"/>
		<path class="st1" d="M-476.3,116.2l-26-40.8h17.4l16.1,27.1l16.4-27.1h16.9l-25.9,40.6v26.9h-14.9V116.2z"/>
		<path class="st1" d="M-402.2,143.8c-5.1,0-10.2-0.9-15.1-2.7c-5-1.8-9.5-4.5-13.5-8.1l8.8-10.5c3.1,2.5,6.2,4.5,9.5,6
			c3.2,1.5,6.8,2.2,10.7,2.2c3.1,0,5.5-0.6,7.2-1.7c1.7-1.1,2.6-2.7,2.6-4.7v-0.1c0-1-0.2-1.8-0.5-2.6c-0.4-0.7-1-1.4-2-2.1
			c-1-0.6-2.4-1.3-4.2-1.9c-1.8-0.6-4.1-1.3-6.9-2c-3.4-0.8-6.5-1.8-9.3-2.8c-2.8-1-5.1-2.3-7.1-3.8c-1.9-1.5-3.4-3.4-4.5-5.6
			c-1.1-2.2-1.6-5-1.6-8.4v-0.2c0-3.1,0.6-5.9,1.7-8.3c1.2-2.5,2.8-4.6,4.8-6.4c2.1-1.8,4.6-3.2,7.4-4.1c2.8-0.9,6.1-1.4,9.5-1.4
			c5,0,9.5,0.7,13.6,2.2s8,3.6,11.4,6.4l-7.6,11c-3-2.1-6-3.7-8.9-4.9c-2.9-1.2-5.8-1.8-8.7-1.8s-5.1,0.6-6.5,1.7s-2.2,2.5-2.2,4.2
			v0.2c0,1.1,0.2,2,0.6,2.8c0.4,0.8,1.2,1.5,2.3,2.2c1.1,0.6,2.6,1.3,4.5,1.8c1.9,0.6,4.3,1.3,7.2,2c3.4,0.9,6.5,1.9,9.1,3
			c2.7,1.1,4.9,2.5,6.8,4c1.8,1.6,3.2,3.4,4.2,5.5c0.9,2.1,1.4,4.7,1.4,7.6v0.2c0,3.3-0.6,6.3-1.8,8.9c-1.2,2.6-2.9,4.8-5.1,6.6
			c-2.2,1.8-4.8,3.1-7.8,4C-395.2,143.4-398.5,143.8-402.2,143.8z"/>
		<path class="st1" d="M-331.8,144c-5.2,0-10-0.9-14.4-2.7s-8.1-4.3-11.3-7.4c-3.2-3.1-5.7-6.8-7.4-11c-1.8-4.2-2.6-8.7-2.6-13.5
			v-0.2c0-4.8,0.9-9.3,2.7-13.5c1.8-4.2,4.3-7.9,7.5-11.1c3.2-3.2,7-5.7,11.4-7.5c4.4-1.8,9.2-2.7,14.4-2.7c5.2,0,10,0.9,14.4,2.7
			c4.4,1.8,8.1,4.3,11.3,7.4c3.2,3.1,5.7,6.8,7.4,11c1.8,4.2,2.6,8.7,2.6,13.5v0.2c0,4.8-0.9,9.3-2.7,13.5
			c-1.8,4.2-4.3,7.9-7.5,11.1s-7,5.7-11.4,7.5S-326.6,144-331.8,144z M-331.6,130.3c3,0,5.7-0.5,8.2-1.6c2.5-1.1,4.6-2.6,6.4-4.5
			s3.1-4.2,4.1-6.7s1.5-5.3,1.5-8.2v-0.2c0-2.9-0.5-5.6-1.5-8.2s-2.4-4.8-4.2-6.8c-1.8-1.9-4-3.5-6.5-4.6s-5.2-1.7-8.2-1.7
			s-5.8,0.5-8.2,1.6c-2.5,1.1-4.6,2.6-6.4,4.5s-3.2,4.2-4.1,6.7c-1,2.5-1.5,5.3-1.5,8.1v0.2c0,2.9,0.5,5.6,1.5,8.2
			c1,2.6,2.4,4.8,4.2,6.8s4,3.5,6.5,4.6C-337.4,129.8-334.6,130.3-331.6,130.3z"/>
		<path class="st1" d="M-282.6,75.4h51.4v13.4h-36.5v14.6h32.2v13.4h-32.2v26.1h-14.8L-282.6,75.4L-282.6,75.4z"/>
		<path class="st1" d="M-203.6,89.1h-20.5V75.4h55.8v13.7h-20.5v53.8h-14.9V89.1H-203.6z"/>
	</g>
	<g>
		<path class="st1" d="M-618.3,191.8c-1.8,0-3.5-0.3-5-0.8s-2.8-1.3-3.8-2.4c-1.1-1.1-1.9-2.4-2.4-3.9c-0.6-1.6-0.9-3.4-0.9-5.4V163
			h4.9v16.1c0,2.6,0.6,4.7,1.9,6c1.3,1.4,3,2.1,5.3,2.1c2.2,0,4-0.7,5.3-2s1.9-3.3,1.9-5.9V163h4.9v16.1c0,2.1-0.3,4-0.9,5.5
			c-0.6,1.6-1.4,2.9-2.5,4c-1.1,1.1-2.3,1.9-3.8,2.4S-616.4,191.8-618.3,191.8z"/>
		<path class="st1" d="M-597.2,163h4.6l15.1,19.6V163h4.9v28.3h-4.2l-15.5-20.1v20.2h-4.9V163L-597.2,163z"/>
		<path class="st1" d="M-563.2,163h4.9v23.8h14.9v4.5h-19.8V163z"/>
		<path class="st1" d="M-522.6,191.8c-2.2,0-4.2-0.4-6-1.2c-1.8-0.8-3.4-1.8-4.7-3.1c-1.3-1.3-2.3-2.9-3-4.6
			c-0.7-1.8-1.1-3.6-1.1-5.6v-0.1c0-2,0.4-3.9,1.1-5.6c0.7-1.8,1.8-3.3,3.1-4.7c1.3-1.3,2.9-2.4,4.7-3.2c1.8-0.8,3.8-1.2,6-1.2
			s4.2,0.4,6,1.2s3.4,1.8,4.7,3.1c1.3,1.3,2.3,2.9,3,4.6c0.7,1.8,1.1,3.6,1.1,5.6v0.1c0,2-0.4,3.9-1.1,5.6c-0.7,1.8-1.8,3.3-3.1,4.7
			c-1.3,1.3-2.9,2.4-4.7,3.2C-518.4,191.4-520.4,191.8-522.6,191.8z M-522.5,187.2c1.4,0,2.7-0.3,3.8-0.8c1.1-0.5,2.2-1.2,3-2.1
			c0.8-0.9,1.5-2,2-3.2s0.7-2.5,0.7-3.9l0,0c0-1.4-0.2-2.7-0.7-3.9s-1.1-2.3-2-3.2c-0.8-0.9-1.9-1.6-3-2.2c-1.2-0.5-2.5-0.8-3.9-0.8
			c-1.4,0-2.7,0.3-3.8,0.8c-1.1,0.5-2.2,1.2-3,2.1c-0.8,0.9-1.5,2-2,3.2s-0.7,2.5-0.7,3.9v0.1c0,1.4,0.2,2.7,0.7,3.9
			c0.5,1.2,1.1,2.3,2,3.2c0.8,0.9,1.9,1.6,3,2.2C-525.2,187-523.9,187.2-522.5,187.2z"/>
		<path class="st1" d="M-486.5,191.8c-2.1,0-4-0.4-5.7-1.1c-1.8-0.8-3.3-1.8-4.6-3.1c-1.3-1.3-2.3-2.9-3-4.6
			c-0.7-1.8-1.1-3.7-1.1-5.7v-0.1c0-2,0.4-3.9,1.1-5.7c0.7-1.8,1.7-3.3,3-4.7c1.3-1.3,2.8-2.4,4.6-3.2c1.8-0.8,3.8-1.2,5.9-1.2
			c1.3,0,2.5,0.1,3.5,0.3c1.1,0.2,2,0.5,2.9,0.9c0.9,0.4,1.7,0.9,2.5,1.4c0.8,0.5,1.5,1.1,2.1,1.8l-3.2,3.7
			c-1.1-1.1-2.3-1.9-3.6-2.6c-1.3-0.6-2.7-1-4.3-1c-1.4,0-2.6,0.3-3.7,0.8s-2.1,1.2-3,2.1c-0.8,0.9-1.5,2-1.9,3.2s-0.7,2.5-0.7,3.9
			v0.1c0,1.4,0.2,2.7,0.7,3.9c0.5,1.2,1.1,2.3,1.9,3.2c0.8,0.9,1.8,1.6,3,2.2c1.1,0.5,2.4,0.8,3.7,0.8c1.7,0,3.2-0.3,4.5-1
			c1.2-0.7,2.5-1.6,3.7-2.7l3.2,3.2c-0.7,0.8-1.5,1.5-2.3,2.1c-0.8,0.6-1.7,1.1-2.6,1.6c-0.9,0.4-1.9,0.8-3,1
			C-484,191.7-485.2,191.8-486.5,191.8z"/>
		<path class="st1" d="M-467.8,163h4.9v14.2l13.5-14.2h6.1l-11.8,12.2l12.3,16.2h-6l-9.7-12.8l-4.4,4.5v8.2h-4.9V163L-467.8,163z"/>
		<path class="st1" d="M-422.3,163h11.2c1.6,0,3.1,0.2,4.5,0.7c1.3,0.4,2.5,1.1,3.4,1.9s1.6,1.8,2.1,3s0.8,2.5,0.8,3.9v0.1
			c0,1.6-0.3,3-0.9,4.2c-0.6,1.2-1.4,2.2-2.4,3s-2.2,1.4-3.6,1.8c-1.4,0.4-2.9,0.6-4.4,0.6h-5.7v9.1h-5V163L-422.3,163z
			 M-411.5,177.7c1.9,0,3.4-0.5,4.5-1.4c1.1-0.9,1.6-2.2,1.6-3.7v-0.1c0-1.7-0.6-2.9-1.7-3.8c-1.1-0.9-2.6-1.3-4.5-1.3h-5.7v10.2
			h5.8V177.7z"/>
		<path class="st1" d="M-379.7,191.8c-2.2,0-4.2-0.4-6-1.2c-1.8-0.8-3.4-1.8-4.7-3.1c-1.3-1.3-2.3-2.9-3-4.6
			c-0.7-1.8-1.1-3.6-1.1-5.6v-0.1c0-2,0.4-3.9,1.1-5.6c0.7-1.8,1.8-3.3,3.1-4.7c1.3-1.3,2.9-2.4,4.7-3.2c1.8-0.8,3.8-1.2,6-1.2
			s4.2,0.4,6,1.2c1.8,0.8,3.4,1.8,4.7,3.1c1.3,1.3,2.3,2.9,3,4.6c0.7,1.8,1.1,3.6,1.1,5.6v0.1c0,2-0.4,3.9-1.1,5.6
			c-0.7,1.8-1.8,3.3-3.1,4.7c-1.3,1.3-2.9,2.4-4.7,3.2C-375.5,191.4-377.5,191.8-379.7,191.8z M-379.6,187.2c1.4,0,2.7-0.3,3.9-0.8
			s2.2-1.2,3-2.1c0.8-0.9,1.5-2,2-3.2s0.7-2.5,0.7-3.9l0,0c0-1.4-0.2-2.7-0.7-3.9s-1.1-2.3-2-3.2c-0.8-0.9-1.9-1.6-3-2.2
			c-1.2-0.5-2.5-0.8-3.9-0.8s-2.7,0.3-3.9,0.8s-2.2,1.2-3,2.1c-0.8,0.9-1.5,2-2,3.2s-0.7,2.5-0.7,3.9v0.1c0,1.4,0.2,2.7,0.7,3.9
			c0.5,1.2,1.1,2.3,2,3.2c0.8,0.9,1.9,1.6,3,2.2C-382.3,187-381,187.2-379.6,187.2z"/>
		<path class="st1" d="M-349.8,167.6h-9V163h23v4.6h-9v23.7h-5V167.6L-349.8,167.6z"/>
		<path class="st1" d="M-328.5,163h21v4.5h-16v7.3h14.2v4.5h-14.2v7.6h16.2v4.5h-21.2V163L-328.5,163z"/>
		<path class="st1" d="M-299.4,163h4.6l15.1,19.6V163h4.9v28.3h-4.2l-15.4-20.1v20.2h-4.9L-299.4,163L-299.4,163z"/>
		<path class="st1" d="M-258.4,167.6h-9V163h23v4.6h-9v23.7h-5V167.6z"/>
		<path class="st1" d="M-236.8,163h4.9v28.3h-4.9V163z"/>
		<path class="st1" d="M-212.2,162.8h4.6l12.5,28.5h-5.3l-2.9-6.8h-13.4l-2.9,6.8h-5.1L-212.2,162.8z M-205.1,180.1l-4.9-11.3
			l-4.9,11.3H-205.1z"/>
		<path class="st1" d="M-188.2,163h4.9v23.8h14.9v4.5h-19.8V163z"/>
	</g>
</g>
<image style="overflow:visible;" width="1000" height="780" xlink:href="../../../../../Projekte/Davide/Keysoft BAUHAUS/42146229.jpg"  transform="matrix(1.0475 0 0 1.0475 -2154.6738 72.1)">
</image>
<ellipse class="st0" cx="121.3" cy="137.8" rx="20.2" ry="4.3"/>
<ellipse class="st0" cx="75.5" cy="137.8" rx="20.2" ry="4.3"/>
<ellipse class="st0" cx="31.5" cy="137.8" rx="20.2" ry="4.3"/>
<ellipse class="st0" cx="120.1" cy="115.1" rx="20.2" ry="11.3"/>
<ellipse class="st0" cx="31.5" cy="115.7" rx="20.2" ry="11.3"/>
<ellipse class="st0" cx="75.5" cy="115.1" rx="20.2" ry="11.3"/>
<ellipse class="st0" cx="120.1" cy="76.7" rx="20.2" ry="17.7"/>
<ellipse class="st0" cx="75.5" cy="76.7" rx="20.2" ry="17.7"/>
<ellipse class="st0" cx="31.5" cy="76.7" rx="20.2" ry="17.7"/>
<circle class="st0" cx="120.1" cy="33.1" r="20.2"/>
<circle class="st0" cx="76.3" cy="33.1" r="20.2"/>
<circle class="st0" cx="32.4" cy="33.1" r="20.2"/>
<circle class="st1" cx="28.7" cy="28.9" r="20.2"/>
<ellipse class="st1" cx="28.7" cy="73.6" rx="20.2" ry="17.7"/>
<ellipse class="st1" cx="28.7" cy="111.5" rx="20.2" ry="11.3"/>
<ellipse class="st1" cx="28.7" cy="133.5" rx="20.2" ry="4.3"/>
<ellipse class="st1" cx="72.9" cy="133.5" rx="20.2" ry="4.3"/>
<ellipse class="st1" cx="117.7" cy="133.5" rx="20.2" ry="4.3"/>
<ellipse class="st1" cx="72.9" cy="111.5" rx="20.2" ry="11.3"/>
<ellipse class="st1" cx="117.7" cy="111.5" rx="20.2" ry="11.3"/>
<ellipse class="st1" cx="72.9" cy="73.6" rx="20.2" ry="17.7"/>
<ellipse class="st1" cx="117.7" cy="73.6" rx="20.2" ry="17.7"/>
<circle class="st1" cx="72.9" cy="28.9" r="20.2"/>
<circle class="st1" cx="117.7" cy="28.9" r="20.2"/>
<polygon class="st2" points="-1815.5,411.2 -1815.5,374.4 -1777.5,374.4 -1750.3,401.6 -1722.7,373.9 -1685.6,373.9 -1685.6,412.3 
	-1712.5,439.1 -1684.6,467.1 -1684.6,504.9 -1722.7,504.9 -1750.7,476.8 -1777.7,503.8 -1815.5,503.8 -1815.5,466.8 -1787.6,438.9 
	"/>
<polygon class="st1" points="941.3,817.5 941.3,780.7 979.4,780.7 1006.5,807.8 1034.2,780.2 1071.2,780.2 1071.2,818.5 
	1044.4,845.4 1072.3,873.3 1072.3,911.1 1034.2,911.1 1006.2,883.1 979.2,910.1 941.3,910.1 941.3,873 969.2,845.1 "/>
</svg>
