<?xml version="1.0" encoding="utf-8"?>
<!-- Generator: Adobe Illustrator 24.3.0, SVG Export Plug-In . SVG Version: 6.00 Build 0)  -->
<svg version="1.1" id="Layer_1" xmlns="http://www.w3.org/2000/svg" xmlns:xlink="http://www.w3.org/1999/xlink" x="0px" y="0px"
	 viewBox="0 0 150 150" style="enable-background:new 0 0 150 150;" xml:space="preserve">
<style type="text/css">
	.st0{fill:#C7F136;}
	.st1{fill:#2E3192;}
</style>
<g>
	<polygon class="st0" points="11.3,48.3 11.3,11.5 49.4,11.5 76.6,38.7 104.2,11 141.3,11 141.3,49.4 114.4,76.2 142.3,104.2 
		142.3,142 104.2,142 76.2,113.9 49.2,140.9 11.3,140.9 11.3,103.9 39.3,76 	"/>
	<polygon class="st1" points="7.7,45.3 7.7,8.5 45.8,8.5 72.9,35.7 100.6,8 137.6,8 137.6,46.4 110.7,73.2 138.7,101.2 138.7,139 
		100.6,139 72.5,110.9 45.5,137.9 7.7,137.9 7.7,100.9 35.6,73 	"/>
</g>
</svg>
