<?xml version="1.0" encoding="utf-8"?>
<!-- Generator: Adobe Illustrator 24.3.0, SVG Export Plug-In . SVG Version: 6.00 Build 0)  -->
<svg version="1.1" id="Layer_1" xmlns="http://www.w3.org/2000/svg" xmlns:xlink="http://www.w3.org/1999/xlink" x="0px" y="0px"
	 viewBox="0 0 150 150" style="enable-background:new 0 0 150 150;" xml:space="preserve">
<style type="text/css">
	.st0{fill:#C7F136;}
	.st1{fill:#2E3192;}
	.st2{fill:#480094;}
	.st3{fill:none;stroke:#000000;stroke-width:0.5;stroke-miterlimit:10;}
</style>
<ellipse class="st2" cx="121.3" cy="137.8" rx="20.2" ry="4.3"/>
<ellipse class="st2" cx="75.5" cy="137.8" rx="20.2" ry="4.3"/>
<ellipse class="st2" cx="32" cy="136.3" rx="20" ry="4.2"/>
<ellipse class="st2" cx="119.6" cy="113.9" rx="20" ry="11.2"/>
<ellipse class="st2" cx="32" cy="114.4" rx="20" ry="11.2"/>
<ellipse class="st2" cx="75.5" cy="113.9" rx="20" ry="11.2"/>
<ellipse class="st2" cx="119.6" cy="76" rx="20" ry="17.5"/>
<ellipse class="st2" cx="75.5" cy="76" rx="20" ry="17.5"/>
<ellipse class="st2" cx="32" cy="76" rx="20" ry="17.5"/>
<circle class="st2" cx="119.6" cy="32.9" r="20"/>
<circle class="st2" cx="76.3" cy="32.9" r="20"/>
<circle class="st2" cx="33" cy="32.9" r="20"/>
<circle class="st1" cx="28.7" cy="28.9" r="20.2"/>
<ellipse class="st1" cx="28.7" cy="73.6" rx="20.2" ry="17.7"/>
<ellipse class="st1" cx="28.7" cy="111.5" rx="20.2" ry="11.3"/>
<ellipse class="st1" cx="28.7" cy="133.5" rx="20.2" ry="4.3"/>
<ellipse class="st1" cx="72.9" cy="133.5" rx="20.2" ry="4.3"/>
<ellipse class="st1" cx="117.7" cy="133.5" rx="20.2" ry="4.3"/>
<ellipse class="st1" cx="72.9" cy="111.5" rx="20.2" ry="11.3"/>
<ellipse class="st1" cx="117.7" cy="111.5" rx="20.2" ry="11.3"/>
<ellipse class="st1" cx="72.9" cy="73.6" rx="20.2" ry="17.7"/>
<ellipse class="st1" cx="117.7" cy="73.6" rx="20.2" ry="17.7"/>
<circle class="st1" cx="72.9" cy="28.9" r="20.2"/>
<circle class="st1" cx="117.7" cy="28.9" r="20.2"/>
</svg>
