<?xml version="1.0" encoding="utf-8"?>
<!-- Generator: Adobe Illustrator 16.0.0, SVG Export Plug-In . SVG Version: 6.00 Build 0)  -->
<!DOCTYPE svg PUBLIC "-//W3C//DTD SVG 1.1//EN" "http://www.w3.org/Graphics/SVG/1.1/DTD/svg11.dtd">
<svg version="1.1" id="Layer_1" xmlns="http://www.w3.org/2000/svg" xmlns:xlink="http://www.w3.org/1999/xlink" x="0px" y="0px"
	 width="306.58px" height="247.488px" viewBox="0 0 306.58 247.488" enable-background="new 0 0 306.58 247.488"
	 xml:space="preserve">
<g>
	<path fill-rule="evenodd" clip-rule="evenodd" fill="#EF372C" d="M147,95.473c2.119-1.21,4.034-2.3,5.949-3.394
		c4.32-2.471,8.635-4.953,12.971-7.4c0.584-0.33,0.809-0.691,0.808-1.373c-0.023-8.035,0.003-16.071-0.035-24.104
		c-0.006-1.225,0.453-1.963,1.496-2.555c7.541-4.277,15.064-8.584,22.579-12.905c0.951-0.55,1.777-0.58,2.742-0.025
		c7.515,4.325,15.038,8.631,22.582,12.907c1.07,0.606,1.55,1.353,1.546,2.609c-0.041,8.511-0.036,17.022-0.003,25.534
		c0.003,1.178-0.418,1.918-1.442,2.498c-7.104,4.027-14.181,8.103-21.281,12.136c-0.606,0.345-0.848,0.705-0.844,1.426
		c0.029,8.035,0.003,16.069,0.035,24.104c0.004,1.179-0.443,1.917-1.458,2.495c-15.353,8.758-30.698,17.532-46.029,26.329
		c-1.104,0.633-2.027,0.608-3.123-0.021c-15.356-8.809-30.725-17.591-46.102-26.362c-0.964-0.55-1.363-1.279-1.363-2.379
		c0.014-26.373,0.014-52.745,0-79.119c-0.003-1.107,0.424-1.834,1.377-2.376c7.633-4.34,15.255-8.698,22.872-13.068
		c0.845-0.483,1.607-0.511,2.444-0.031c7.691,4.411,15.386,8.812,23.087,13.205c0.922,0.526,1.2,1.311,1.199,2.312
		C146.992,51.656,147,57.395,147,63.133c0,10.387,0,20.774,0,31.161C147,94.622,147,94.949,147,95.473z M143.079,149.061
		c0.03-0.397,0.063-0.614,0.063-0.832c0.003-6.969-0.006-13.939,0.017-20.909c0.003-0.616-0.273-0.877-0.75-1.146
		c-7.025-3.934-14.032-7.908-21.076-11.808c-1.263-0.699-1.775-1.569-1.773-3.005c0.033-16.849,0.017-33.7,0.036-50.551
		c0.001-0.642-0.188-0.989-0.756-1.312c-6.031-3.418-12.044-6.869-18.066-10.307c-0.254-0.146-0.521-0.266-0.9-0.454
		c0,0.48,0,0.812,0,1.141c0,24.492,0.004,48.983-0.021,73.475c0,0.789,0.273,1.182,0.928,1.556
		c12.051,6.865,24.087,13.754,36.129,20.638C138.92,146.696,140.933,147.84,143.079,149.061z M143.098,48.78
		c-0.319,0.153-0.543,0.25-0.752,0.369c-6.094,3.482-12.181,6.978-18.286,10.44c-0.534,0.303-0.647,0.664-0.644,1.211
		c0.008,15.703,0.005,31.406,0.008,47.108c0,0.289,0.036,0.578,0.062,0.944c0.278-0.126,0.435-0.183,0.577-0.263
		c6.167-3.521,12.329-7.057,18.507-10.559c0.559-0.317,0.581-0.727,0.581-1.245c-0.005-15.675-0.005-31.351-0.006-47.025
		C143.143,49.464,143.117,49.169,143.098,48.78z M147.044,149.008c0.368-0.181,0.639-0.297,0.896-0.445
		c13.84-7.909,27.672-15.828,41.52-23.726c0.578-0.33,0.815-0.679,0.812-1.365c-0.028-6.774-0.019-13.551-0.019-20.325
		c0-0.295,0-0.589,0-1.005c-0.355,0.168-0.58,0.259-0.789,0.375c-13.916,7.888-27.831,15.782-41.756,23.655
		c-0.541,0.305-0.723,0.637-0.723,1.244c0.022,6.888,0.014,13.774,0.016,20.661C147.001,148.348,147.026,148.617,147.044,149.008z
		 M188.25,98.8c-0.332-0.211-0.555-0.363-0.789-0.498c-6.067-3.469-12.139-6.93-18.192-10.422c-0.52-0.298-0.883-0.24-1.362,0.036
		c-11.545,6.615-23.099,13.217-34.649,19.822c-2.57,1.469-5.137,2.941-7.831,4.482c0.41,0.242,0.71,0.429,1.02,0.602
		c5.921,3.329,11.85,6.642,17.755,10.001c0.65,0.37,1.106,0.347,1.736-0.012c12.464-7.091,24.942-14.158,37.416-21.231
		C184.953,100.673,186.552,99.763,188.25,98.8z M211.823,58.639c-0.352-0.217-0.561-0.354-0.777-0.477
		c-6.04-3.456-12.084-6.904-18.113-10.379c-0.553-0.32-0.951-0.34-1.515-0.013c-4.887,2.826-9.795,5.616-14.696,8.419
		c-1.377,0.785-2.75,1.577-4.187,2.405c0.223,0.155,0.352,0.259,0.494,0.341c6.21,3.555,12.423,7.101,18.624,10.671
		c0.451,0.26,0.759,0.146,1.144-0.075c4.193-2.408,8.39-4.804,12.587-7.206C207.493,61.121,209.598,59.913,211.823,58.639z
		 M101.865,45.373c0.327,0.202,0.55,0.352,0.782,0.483c6.069,3.471,12.141,6.933,18.198,10.422c0.507,0.292,0.874,0.276,1.371-0.013
		c6.058-3.484,12.129-6.948,18.197-10.419c0.223-0.129,0.435-0.279,0.719-0.463c-0.229-0.151-0.342-0.232-0.46-0.302
		c-6.213-3.555-12.431-7.101-18.631-10.675c-0.46-0.264-0.755-0.145-1.137,0.072c-3.807,2.187-7.619,4.364-11.429,6.542
		C106.977,42.45,104.48,43.876,101.865,45.373z M170.606,61.964c-0.03,0.302-0.053,0.44-0.053,0.578
		c-0.001,7.022,0.005,14.045-0.016,21.066c0,0.513,0.213,0.742,0.611,0.967c6.097,3.475,12.186,6.957,18.277,10.438
		c0.226,0.131,0.47,0.231,0.776,0.38c0.025-0.323,0.052-0.514,0.052-0.703c0-6.939-0.008-13.878,0.018-20.815
		c0.001-0.588-0.269-0.834-0.71-1.086c-4.542-2.584-9.077-5.179-13.614-7.771C174.206,64.024,172.467,63.027,170.606,61.964z
		 M213.741,62.02c-0.272,0.132-0.474,0.213-0.659,0.32c-6.143,3.506-12.278,7.021-18.427,10.514
		c-0.461,0.261-0.582,0.567-0.58,1.068c0.014,6.855,0.011,13.71,0.013,20.565c0,0.269,0.026,0.536,0.044,0.896
		c0.276-0.127,0.48-0.201,0.666-0.307c6.115-3.495,12.227-7,18.354-10.475c0.523-0.297,0.646-0.648,0.646-1.203
		c-0.016-6.827-0.01-13.656-0.012-20.484C213.786,62.648,213.761,62.379,213.741,62.02z"/>
	<g>
		<path fill-rule="evenodd" clip-rule="evenodd" fill="#EF372C" d="M180.245,215.018c-3.111,0-6.191,0-9.399,0
			c0-1.731,0-3.469,0-5.206c-0.096-0.052-0.193-0.104-0.289-0.154c-0.044,0.119-0.058,0.263-0.132,0.36
			c-3.203,4.241-7.583,6.079-12.775,6.033c-10.771-0.091-18.261-7.873-20.022-16.95c-2.084-10.753,3.907-21.934,14.767-24.862
			c4.993-1.343,9.847-1.056,14.28,1.83c1.323,0.858,2.382,2.126,3.554,3.213c0.16,0.151,0.281,0.346,0.594,0.487
			c0-0.971-0.016-1.941,0.006-2.909c0.016-0.743-0.184-1.721,0.206-2.151c0.336-0.375,1.358-0.15,2.081-0.155
			c2.05-0.011,4.101-0.003,6.15-0.003c0.305,0,0.614,0,0.979,0C180.245,188.062,180.245,201.492,180.245,215.018z M157.484,181.883
			c-3.8,0.149-7.441,2.452-9.55,6.995c-1.436,3.094-1.639,6.369-0.757,9.65c1.335,4.958,4.487,8.113,9.596,9.041
			c4.766,0.869,9.506-1.35,12.046-5.532c1.87-3.081,2.344-6.436,1.734-9.964C169.52,186.101,164.609,181.88,157.484,181.883z"/>
		<path fill-rule="evenodd" clip-rule="evenodd" fill="#EF372C" d="M93.127,179.992c0-1.928,0-3.621,0-5.377
			c3.189,0,6.284,0,9.436,0c0,13.465,0,26.912,0,40.4c-3.128,0-6.224,0-9.417,0c0-1.754,0-3.474,0-5.366
			c-0.217,0.202-0.312,0.269-0.38,0.357c-3.208,4.228-7.578,6.086-12.77,6.047c-10.816-0.083-18.341-7.903-20.077-17.07
			c-2.016-10.647,3.932-21.803,14.754-24.729c5.338-1.444,10.448-0.994,15.058,2.303c1.059,0.756,1.897,1.822,2.831,2.749
			C92.714,179.459,92.84,179.638,93.127,179.992z M81.725,207.691c2.332-0.05,4.696-0.929,6.758-2.603
			c5.145-4.171,6.183-12.496,2.271-18.131c-5.206-7.5-16.558-6.585-20.399,1.695c-1.927,4.158-1.86,8.414,0.125,12.552
			C72.491,205.397,76.934,207.987,81.725,207.691z"/>
		<path fill-rule="evenodd" clip-rule="evenodd" fill="#EF372C" d="M261.862,202.301c2.145,1.647,4.215,3.242,6.439,4.951
			c-1.506,1.378-2.906,2.749-4.4,4.013c-4.223,3.569-9.136,5.054-14.634,4.796c-4.218-0.194-8.22-1.112-11.821-3.374
			c-5.239-3.29-8.073-8.147-8.945-14.188c-0.789-5.477,0.123-10.637,3.115-15.362c6.635-10.473,21.198-12.868,30.471-4.976
			c4.084,3.479,6.348,7.982,7.168,13.248c0.35,2.243,0.404,4.485,0.074,6.832c-10.525,0-21.045,0-31.767,0
			c0.167,0.846,0.247,1.579,0.457,2.274c1.355,4.464,5.668,7.75,10.347,8.061c5.215,0.346,9.266-1.907,12.766-5.491
			C261.364,202.846,261.587,202.596,261.862,202.301z M260.555,191.248c0.032-5.493-5.134-10.213-11.176-10.283
			c-6.47-0.074-11.552,4.398-11.634,10.283C245.331,191.248,252.915,191.248,260.555,191.248z"/>
		<path fill-rule="evenodd" clip-rule="evenodd" fill="#EF372C" d="M28.591,154.217c3.309,0,6.546,0,9.902,0c0,0.39,0,0.743,0,1.095
			c0,16.58,0,33.16,0,49.738c0,1.109,0,1.11,1.078,1.11c5.602,0.002,11.207,0.002,16.812,0.002c0.33,0,0.66,0,1.031,0
			c0,2.996,0,5.89,0,8.84c-9.592,0-19.178,0-28.822,0C28.591,194.75,28.591,174.489,28.591,154.217z"/>
		<path fill-rule="evenodd" clip-rule="evenodd" fill="#EF372C" d="M200.653,215.056c-5.207-13.47-10.405-26.917-15.644-40.464
			c0.364-0.017,0.638-0.041,0.908-0.041c2.57-0.001,5.14,0.027,7.707-0.02c0.742-0.015,1.074,0.226,1.337,0.914
			c3.728,9.72,7.485,19.43,11.24,29.14c0.108,0.284,0.239,0.559,0.421,0.991c0.168-0.387,0.286-0.633,0.384-0.888
			c3.778-9.759,7.561-19.513,11.308-29.282c0.262-0.686,0.589-0.885,1.291-0.874c2.542,0.041,5.084,0.018,7.627,0.018
			c0.281,0,0.562,0,0.976,0c-0.122,0.374-0.19,0.636-0.289,0.888c-5.013,12.973-10.028,25.941-15.034,38.917
			c-0.189,0.493-0.402,0.723-0.988,0.717C208.162,215.04,204.427,215.056,200.653,215.056z"/>
		<path fill-rule="evenodd" clip-rule="evenodd" fill="#EF372C" d="M275.726,154.219c3.139,0,6.218,0,9.349,0
			c0,20.264,0,40.488,0,60.775c-3.084,0-6.183,0-9.349,0C275.726,194.778,275.726,174.536,275.726,154.219z"/>
		<path fill-rule="evenodd" clip-rule="evenodd" fill="#EF372C" d="M119.725,183.796c0,10.45,0,20.795,0,31.199
			c-3.172,0-6.267,0-9.446,0c-0.019-0.295-0.052-0.594-0.052-0.894c-0.003-12.848-0.003-25.691-0.003-38.539
			c0-1.012,0.005-1.013,1.029-1.013c7.966,0,15.934,0,23.9,0c0.281,0,0.562,0,0.892,0c0,3.103,0,6.123,0,9.246
			C130.613,183.796,125.206,183.796,119.725,183.796z"/>
	</g>
</g>
</svg>
