<?xml version="1.0" encoding="utf-8"?>
<!-- Generator: Adobe Illustrator 16.0.0, SVG Export Plug-In . SVG Version: 6.00 Build 0)  -->
<!DOCTYPE svg PUBLIC "-//W3C//DTD SVG 1.1//EN" "http://www.w3.org/Graphics/SVG/1.1/DTD/svg11.dtd">
<svg version="1.1" id="Layer_1" xmlns="http://www.w3.org/2000/svg" xmlns:xlink="http://www.w3.org/1999/xlink" x="0px" y="0px"
	 width="305px" height="227px" viewBox="0 0 305 227" enable-background="new 0 0 305 227" xml:space="preserve">
<g>
	<g>
		<path fill-rule="evenodd" clip-rule="evenodd" fill="#F070A7" d="M182.323,108.16c-1.365,1.146-2.135,2.732-3.099,4.177
			c-0.591,0.884-1.146,1.801-1.815,2.623c-2.02,2.476-4.701,3.582-8.284,2.004c-1.46-0.361-2.242-1.562-3.122-2.601
			c-1.332-1.573-2.355-3.383-3.658-4.986c-0.451-0.552-0.932-1.07-1.535-1.457c-2.609-2.186-6.588-1.984-9.129,1.326
			c-0.543,0.706-0.854,1.601-1.646,2.112c-0.86,1.161-1.537,2.452-2.465,3.574c-2.906,3.495-6.945,3.724-10.169,0.556
			c-0.183-0.179-0.382-0.342-0.572-0.516c-0.487-0.131-0.665-0.581-0.935-0.925c-1.463-1.869-2.628-3.968-4.36-5.63
			c-0.301-0.288-0.592-0.59-0.951-0.811c-2.472-1.696-6.208-1.606-8.476,1.332c-0.611,0.794-1.16,1.628-1.734,2.446
			c-0.199,0.286-0.34,0.631-0.703,0.769c-0.855,1.214-1.605,2.503-2.668,3.567c-3.113,3.104-8.172,2.407-10.335-1.446
			c-3.851-6.866-6.276-14.204-7.403-21.998c-0.619-4.285-0.75-8.584-0.506-12.879c0.449-7.976,2.371-15.617,5.747-22.879
			c3.245-6.975,7.595-13.176,13.164-18.483c8.309-7.912,18.058-13.077,29.374-15.231c4.51-0.858,9.057-1.18,13.614-0.902
			c11.532,0.704,21.987,4.499,31.184,11.516c12.112,9.235,19.704,21.391,23.013,36.243c0.762,3.409,1.293,6.851,1.333,10.354
			c-0.526-0.066-0.425-0.502-0.452-0.82c-0.558-6.547-2.115-12.837-4.712-18.878c-2.479-5.766-5.749-11.021-9.912-15.72
			c-0.163-0.187-0.349-0.364-0.435-0.682c4.715,9.609,8.158,19.546,9.32,30.177c1.386,12.627-0.701,24.658-6.332,36.061
			c-0.918,1.861-1.891,3.692-2.939,5.483c-0.488,0.838-0.379,1.008,0.536,1.42c0.688,0.309,1.509-0.013,2.126,0.521
			c-1.348,0.361-2.625,0.017-3.896-0.396c-1.32-0.153-2.146-1.089-2.951-1.979c-1.1-1.222-2.023-2.595-2.941-3.963
			c-0.667-0.997-1.391-1.941-2.295-2.737c-2.219-2.589-6.38-2.548-8.472-0.58C182.675,108.032,182.513,108.124,182.323,108.16z"/>
		<path fill-rule="evenodd" clip-rule="evenodd" fill="#4E58A6" d="M160.991,107.797c1.01,0.577,1.631,1.533,2.303,2.424
			c0.964,1.284,1.883,2.609,2.824,3.912c0.82,1.136,1.883,2.019,3.007,2.831c-0.009,8.549-0.024,17.096-0.024,25.644
			c0,2.196-0.5,4.23-1.795,6.03c-2.425,3.37-6.649,4.771-10.59,3.536c-3.958-1.245-6.605-4.851-6.629-9.186
			c-0.037-6.768-0.012-13.535-0.008-20.302c0-1.197,0.018-2.396,0.029-3.594c0.515-0.762,1.383-1.134,1.99-1.811
			c1.154-1.286,2.028-2.756,2.939-4.207c1.086-1.727,2.145-3.483,3.908-4.633C159.562,108.047,160.164,107.547,160.991,107.797z"/>
		<path fill-rule="evenodd" clip-rule="evenodd" fill="#4E58A6" d="M191.5,108.377c1.42,1.169,2.3,2.771,3.342,4.237
			c1.284,1.802,2.616,3.537,4.647,4.568c-0.006,4.862,0.004,9.723-0.022,14.583c-0.024,4.111-3.056,7.661-7.058,8.329
			c-4.195,0.695-8.219-1.721-9.561-5.739c-0.363-1.088-0.46-2.211-0.461-3.352c-0.02-7.614-0.041-15.229-0.064-22.844
			c0.065-0.091,0.127-0.179,0.188-0.267c0.408,0.354,0.293,0.838,0.297,1.276c0.013,2.623,0.003,5.251,0.008,7.874
			c0,0.318-0.035,0.644,0.07,1.032c0.775-0.408,1.256-1.047,1.754-1.657c0.962-1.188,1.707-2.52,2.508-3.814
			c0.844-1.357,1.768-2.646,2.992-3.684C190.521,108.598,190.886,108.156,191.5,108.377z"/>
		<path fill-rule="evenodd" clip-rule="evenodd" fill="#DC519D" d="M203.386,117.578c-1.004-0.017-1.986-0.059-2.916-0.567
			c-0.516-0.282-0.646-0.485-0.316-1.021c3.096-5.036,5.561-10.369,7.266-16.033c1.027-3.395,1.775-6.854,2.179-10.392
			c0.333-2.92,0.616-5.841,0.551-8.777c-0.11-5.004-0.689-9.958-1.79-14.843c-1.521-6.741-3.82-13.208-6.781-19.447
			c-0.509-1.072-0.987-2.161-1.357-3.339c0.918,1.042,1.88,2.046,2.74,3.131c2.551,3.228,4.817,6.646,6.662,10.322
			c2.967,5.896,4.988,12.111,5.947,18.648c0.205,1.396,0.48,2.8,0.43,4.229c-0.006,0.197,0.018,0.391,0.187,0.527
			c0.692,10.53-0.983,20.659-5.333,30.283c-1.008,2.226-2.293,4.373-4.191,6.025C205.735,117.132,204.654,117.622,203.386,117.578z"
			/>
		<path fill-rule="evenodd" clip-rule="evenodd" fill="#4E58A6" d="M130.788,107.489c0.961,0.626,1.706,1.472,2.375,2.382
			c1.24,1.688,2.444,3.4,3.662,5.102c-0.012,4.05-0.01,8.099-0.043,12.146c-0.035,4.336-2.645,7.666-6.71,8.626
			c-5.118,1.206-10.271-2.756-10.358-8.014c-0.053-3.204,0.008-6.411,0.017-9.617c2.133-2.637,3.589-5.751,5.808-8.311
			C126.882,108.256,128.575,107.202,130.788,107.489z"/>
		<path fill-rule="evenodd" clip-rule="evenodd" fill="#373D75" d="M160.991,107.797c-2.082,0.515-3.402,1.982-4.586,3.64
			c-1.398,1.964-2.42,4.187-4.096,5.969c-0.65,0.69-1.34,1.294-2.201,1.688c-0.025-2.577-0.049-5.157-0.074-7.734
			c0.791-1.586,1.844-2.972,3.273-4.03C155.585,105.643,158.964,105.867,160.991,107.797z"/>
		<path fill-rule="evenodd" clip-rule="evenodd" fill="#373D74" d="M130.788,107.489c-1.987,0.208-3.744,0.917-5.076,2.46
			c-0.992,1.147-1.789,2.441-2.604,3.723c-0.998,1.572-1.883,3.242-3.378,4.442c-0.019-1.989-0.039-3.975-0.062-5.96
			c0.932-1.754,1.988-3.408,3.566-4.663C125.405,105.766,128.558,105.766,130.788,107.489z"/>
		<path fill-rule="evenodd" clip-rule="evenodd" fill="#FFFFFF" d="M184.912,70.372c0.022,5.004-0.702,9.582-2.679,13.893
			c-3.009,6.578-8.166,10.7-15.042,12.625c-7.772,2.175-15.624,2.198-23.37-0.095c-8.828-2.61-14.314-8.568-16.442-17.495
			c-2.023-8.486-1.265-16.727,2.922-24.484c3.766-6.985,9.214-12.213,16.799-14.806c9.169-3.134,17.659-1.418,25.245,4.47
			c6.939,5.386,10.881,12.612,12.293,21.241C184.903,67.354,184.954,69.007,184.912,70.372z"/>
		<path fill-rule="evenodd" clip-rule="evenodd" fill="#373D75" d="M191.5,108.377c-1.97,0.949-3.054,2.728-4.173,4.472
			c-1.152,1.791-2.15,3.695-3.767,5.151c-0.26,0.236-0.487,0.524-1.048,0.631c0-3.604,0-7.17,0-10.737
			C185.201,105.463,189.149,105.674,191.5,108.377z"/>
		<path fill-rule="evenodd" clip-rule="evenodd" fill="#27286C" d="M136.813,59.604c0.012-5.889,3.545-10.578,8.801-11.747
			c2.775-0.619,5.301-0.007,7.82,1.494c5.064,3.021,7.197,10.969,3.356,16.754c-2.538,3.823-6.156,5.591-10.774,4.933
			c-4.037-0.573-7.75-4.145-8.788-8.328C136.958,61.608,136.733,60.497,136.813,59.604z"/>
		<path fill-rule="evenodd" clip-rule="evenodd" fill="#FFFFFF" d="M140.481,56.658c-0.049-2.918,2.412-5.438,5.469-5.432
			c3.027,0.005,5.48,2.473,5.467,5.502c-0.011,2.948-2.502,5.398-5.489,5.386C142.862,62.101,140.427,59.592,140.481,56.658z"/>
	</g>
	<g>
		<path fill-rule="evenodd" clip-rule="evenodd" fill="#4C54A1" d="M111.407,192.658c-0.555,5.302,3.551,9.876,8.732,10.126
			c3.581,0.17,6.809-0.774,9.951-2.291c0.553-0.265,1.106-0.527,1.676-0.75c1.072-0.422,2.165-0.573,3.078,0.296
			c0.957,0.908,1.22,2.087,0.996,3.37c-0.266,1.503-1.288,2.425-2.541,3.106c-3.928,2.136-8.118,3.211-12.604,3.135
			c-3.167-0.055-6.227-0.572-9.071-2.002c-4.359-2.19-7.284-5.632-8.506-10.36c-1.4-5.427-1.282-10.822,1.303-15.913
			c2.807-5.526,7.443-8.442,13.586-9.095c2.98-0.316,5.881-0.04,8.625,1.106c5.615,2.349,8.447,6.828,9.307,12.69
			c0.174,1.172,0.199,2.375,0.211,3.562c0.018,2.137-0.77,2.931-2.904,2.934c-6.843,0.012-13.688,0.004-20.531,0.009
			C112.272,192.583,111.833,192.633,111.407,192.658z M128.312,187.841c0.143-5.635-2.775-9.471-8.221-9.419
			c-6.318,0.061-8.714,5.28-8.694,9.419C117.019,187.841,122.642,187.841,128.312,187.841z"/>
		<path fill-rule="evenodd" clip-rule="evenodd" fill="#4C54A1" d="M80.267,197.87c0.4-0.84,0.709-1.468,0.998-2.104
			c3.158-6.919,6.301-13.847,9.471-20.76c1.346-2.931,4.518-3.598,6.856-1.482c1.349,1.219,1.611,2.769,0.74,4.579
			c-2.239,4.648-4.491,9.289-6.733,13.934c-2.342,4.848-4.65,9.711-7.025,14.542c-1.676,3.406-6.294,3.896-8.606,0.949
			c-0.296-0.377-0.526-0.812-0.737-1.243c-4.48-9.221-8.959-18.441-13.427-27.668c-1.283-2.648-0.663-4.644,1.755-5.806
			c2.496-1.197,4.951-0.359,6.129,2.193c3.326,7.197,6.607,14.414,9.912,21.622C79.765,196.989,79.976,197.329,80.267,197.87z"/>
		<path fill-rule="evenodd" clip-rule="evenodd" fill="#4C54A1" d="M35.759,183.036c0,7.328-0.015,14.656,0.012,21.984
			c0.006,1.898-0.654,3.363-2.457,4.097c-1.928,0.786-3.801,0.636-5.436-0.763c-1.134-0.975-1.265-2.354-1.268-3.724
			c-0.017-7.229-0.007-14.46-0.007-21.691c0-7.07-0.001-14.14,0.003-21.208c0.002-0.449,0.043-0.9,0.08-1.35
			c0.158-1.812,1.125-3.008,2.857-3.494c1.912-0.536,3.721-0.301,5.209,1.139c0.783,0.759,1.011,1.76,1.01,2.834
			C35.755,168.252,35.759,175.644,35.759,183.036z"/>
		<path fill-rule="evenodd" clip-rule="evenodd" fill="#4C54A1" d="M157.833,194.832c0.124-0.282,0.26-0.562,0.373-0.849
			c2.637-6.682,5.258-13.371,7.912-20.047c1.367-3.445,5.354-4.624,8.076-2.308c0.814,0.692,1.428,1.758,1.838,2.771
			c2.638,6.508,5.191,13.052,7.779,19.58c0.124,0.317,0.281,0.623,0.533,1.175c0.258-0.601,0.43-0.961,0.57-1.333
			c2.534-6.721,5.074-13.44,7.592-20.167c1.523-4.059,6.359-3.936,8.564-1.2c1.127,1.402,1.313,3.014,0.634,4.65
			c-4.149,9.964-8.308,19.928-12.514,29.869c-0.935,2.21-2.754,3.251-5.157,3.232c-2.416-0.018-4.164-1.127-5.086-3.34
			c-2.623-6.309-5.186-12.64-7.776-18.96c-0.131-0.32-0.288-0.627-0.54-1.171c-0.309,0.685-0.542,1.151-0.731,1.637
			c-2.397,6.051-4.782,12.105-7.183,18.154c-0.975,2.458-2.709,3.66-5.241,3.68c-2.534,0.02-4.344-1.146-5.347-3.546
			c-4.064-9.723-8.119-19.448-12.158-29.181c-1.207-2.912-0.02-5.543,2.969-6.708c2.803-1.096,5.473,0.088,6.574,2.963
			c2.535,6.617,5.043,13.246,7.562,19.868c0.159,0.415,0.328,0.823,0.49,1.235C157.656,194.835,157.745,194.834,157.833,194.832z
			 M184.388,199.008c-0.127-0.278-0.199-0.415-0.254-0.559c-3.158-7.968-6.318-15.933-9.465-23.905
			c-0.463-1.172-1.164-2.085-2.375-2.517c-2.066-0.738-4.076,0.242-4.959,2.465c-2.072,5.21-4.115,10.433-6.168,15.646
			c-1.131,2.868-2.259,5.732-3.449,8.753c-0.189-0.408-0.321-0.655-0.421-0.915c-1.269-3.342-2.533-6.688-3.802-10.031
			c-1.736-4.578-3.484-9.152-5.217-13.731c-0.465-1.23-1.248-2.15-2.57-2.39c-1.646-0.294-3.061,0.261-4.159,1.527
			c-1.029,1.185-0.835,2.469-0.278,3.804c4.041,9.662,8.062,19.334,12.1,28.999c0.76,1.817,2.283,2.858,4.135,2.771
			c1.918-0.094,3.258-1.028,3.975-2.862c2.051-5.252,4.131-10.493,6.203-15.737c0.943-2.388,1.896-4.772,2.902-7.312
			c0.193,0.417,0.322,0.669,0.427,0.93c2.987,7.308,5.968,14.619,8.954,21.928c0.836,2.041,2.236,3.116,4.135,3.056
			c2.061-0.066,3.409-1.132,4.133-3.072c0.529-1.417,1.159-2.798,1.742-4.193c3.463-8.263,6.93-16.526,10.388-24.79
			c0.702-1.681,0.356-3.156-0.949-4.166c-2.188-1.687-4.717-0.997-5.702,1.592c-2.016,5.298-4.006,10.606-6.006,15.911
			C186.616,193.097,185.527,195.986,184.388,199.008z"/>
		<path fill-rule="evenodd" clip-rule="evenodd" fill="#4C54A1" d="M45.97,190.891c0-4.78-0.005-9.56,0.002-14.34
			c0.003-2.082,0.995-3.475,2.827-4.014c2.194-0.647,4.723,0.026,5.61,1.686c0.438,0.815,0.668,1.84,0.674,2.77
			c0.045,9.27,0.078,18.539,0.003,27.809c-0.031,3.593-2.453,5.346-5.966,4.583c-1.915-0.419-3.137-1.886-3.145-3.863
			c-0.014-4.877-0.002-9.754-0.002-14.63C45.97,190.891,45.97,190.891,45.97,190.891z"/>
		<path fill-rule="evenodd" clip-rule="evenodd" fill="#4C54A1" d="M263.722,192.91c-0.314,4.176,2.684,7.956,6.613,8.682
			c3.967,0.733,7.516-0.438,10.987-2.14c0.723-0.354,1.451-0.724,2.216-0.953c2.314-0.689,4.312,0.796,4.566,3.213
			c0.255,2.387-0.73,4.083-2.699,5.25c-3.324,1.964-6.934,3.062-10.78,3.414c-3.726,0.338-7.349-0.084-10.786-1.565
			c-5.92-2.553-9.338-7.157-10.482-13.431c-0.863-4.741-0.703-9.465,1.199-13.962c2.826-6.685,7.881-10.412,15.15-11.074
			c4.688-0.425,8.98,0.556,12.656,3.618c3.274,2.727,5.053,6.33,5.693,10.473c0.287,1.86,0.418,3.792,0.246,5.658
			c-0.178,1.935-1.469,2.811-3.416,2.814c-6.655,0.006-13.309,0.003-19.962,0.003C264.542,192.91,264.159,192.91,263.722,192.91z
			 M274.056,191.508c3.584,0,7.168,0.003,10.754,0c1.631-0.002,2.275-0.627,2.252-2.291c-0.02-1.319-0.033-2.647-0.211-3.952
			c-0.484-3.604-1.823-6.862-4.446-9.449c-3.759-3.708-8.382-4.718-13.468-4.04c-6.428,0.856-10.807,4.396-13.221,10.365
			c-1.65,4.085-1.869,8.341-1.131,12.634c1.014,5.898,4.09,10.341,9.666,12.761c4.17,1.811,8.551,2.041,12.982,1.12
			c2.631-0.546,5.154-1.412,7.461-2.834c1.02-0.628,1.846-1.422,2.078-2.657c0.216-1.143,0.01-2.223-0.852-3.03
			c-0.826-0.774-1.796-0.494-2.716-0.088c-0.441,0.194-0.88,0.401-1.313,0.609c-3.498,1.675-7.047,2.971-11.06,2.361
			c-3.411-0.52-6.071-2.043-7.384-5.31c-0.626-1.561-0.879-3.275-1.23-4.936c-0.264-1.25-0.211-1.264,1.084-1.264
			C266.887,191.508,270.471,191.508,274.056,191.508z"/>
		<path fill-rule="evenodd" clip-rule="evenodd" fill="#4C54A1" d="M237.423,175.594c0.127-0.303,0.184-0.667,0.392-0.896
			c2.231-2.497,5.052-3.854,8.371-4.124c1.204-0.101,2.458-0.174,3.632,0.047c1.663,0.312,2.734,1.786,2.805,3.501
			c0.033,0.771,0.069,1.567-0.076,2.313c-0.33,1.692-1.447,2.748-3.099,3.083c-1.761,0.357-3.56,0.524-5.336,0.806
			c-3.737,0.588-6.485,3.489-6.586,7.259c-0.152,5.612-0.122,11.229-0.185,16.847c-0.007,0.738,0.015,1.5-0.16,2.206
			c-0.604,2.426-2.893,3.899-5.632,3.71c-2.681-0.185-4.474-1.837-4.788-4.438c-0.082-0.67-0.135-1.351-0.135-2.023
			c-0.008-9.075-0.006-18.15,0-27.224c0-0.611,0.087-1.221,0.107-1.834c0.107-2.812,2.673-4.502,5.354-4.448
			c2.738,0.056,4.533,1.713,4.846,4.517c0.011,0.118,0.061,0.232,0.091,0.349C237.157,175.358,237.29,175.476,237.423,175.594z
			 M228.007,190.297c0,4.938-0.008,9.876,0.004,14.814c0.005,1.997,1.004,3.413,2.82,3.746c2.748,0.505,5.268-0.575,5.26-4.058
			c-0.016-5.585-0.096-11.171,0.035-16.752c0.09-3.861,2.162-7.658,6.695-8.763c1.646-0.4,3.355-0.553,5.044-0.765
			c3.033-0.379,3.981-2.009,3.317-4.94c-0.23-1.01-1.131-1.72-2.166-1.79c-4.854-0.321-9.588,1.64-11.773,6.134
			c-0.2,0.415-0.367,0.653-0.938,0.523c-0.608-0.141-0.673-0.465-0.681-0.958c-0.016-0.935-0.03-1.87-0.109-2.8
			c-0.125-1.495-1.016-2.574-2.471-2.832c-3.002-0.533-5.104,0.953-5.059,3.916C228.062,180.614,228.005,185.454,228.007,190.297z"
			/>
		<path fill-rule="evenodd" clip-rule="evenodd" fill="#4C54A1" d="M207.402,190.374c0-5.066-0.019-10.133,0.005-15.199
			c0.015-2.611,1.716-4.37,4.527-4.771c2.605-0.376,5.195,1.08,5.869,3.359c0.19,0.638,0.299,1.327,0.299,1.992
			c0.02,9.713,0.021,19.427,0.006,29.138c-0.004,2.147-0.744,3.948-2.832,4.874c-2.162,0.956-4.275,0.833-6.191-0.651
			c-1.172-0.905-1.678-2.175-1.68-3.639C207.397,200.441,207.402,195.407,207.402,190.374z M216.716,190.266
			c0-4.94-0.002-9.879,0.004-14.819c0-1.085-0.285-2.056-1.158-2.749c-1.451-1.155-3.095-1.194-4.755-0.593
			c-1.632,0.591-2.14,1.98-2.143,3.558c-0.019,9.782-0.019,19.567,0.005,29.349c0.002,1.104,0.215,2.213,1.145,2.978
			c1.434,1.183,3.07,1.265,4.73,0.624c1.621-0.628,2.191-1.941,2.184-3.623C216.703,200.081,216.72,195.174,216.716,190.266z"/>
		<path fill-rule="evenodd" clip-rule="evenodd" fill="#4C54A1" d="M50.396,165.402c-2.932,0-4.705-1.3-5.251-3.831
			c-0.646-2.997,1.452-5.569,4.696-5.712c0.701-0.029,1.421,0.026,2.107,0.163c2.621,0.521,4.209,2.567,3.951,5.021
			c-0.271,2.558-2.188,4.289-4.828,4.355C50.847,165.405,50.619,165.402,50.396,165.402z"/>
		<path fill-rule="evenodd" clip-rule="evenodd" fill="#4C54A1" d="M212.656,153.491c3.378-0.024,5.501,1.546,6.158,4.535
			c0.726,3.317-1.647,6.562-5.017,6.78c-0.988,0.065-2.021,0.104-2.972-0.11c-2.943-0.667-4.677-3.193-4.372-6.17
			c0.301-2.929,2.468-4.904,5.525-5.033C212.206,153.484,212.431,153.491,212.656,153.491z M217.507,159.138
			c0.007-2.672-1.842-4.377-4.769-4.397c-2.978-0.021-4.882,1.634-4.894,4.259c-0.013,2.859,1.768,4.579,4.763,4.592
			C215.66,163.605,217.499,161.933,217.507,159.138z"/>
		<path fill-rule="evenodd" clip-rule="evenodd" fill="#FFFFFF" d="M184.388,199.008c1.14-3.021,2.229-5.911,3.318-8.801
			c2-5.305,3.99-10.613,6.006-15.911c0.985-2.589,3.514-3.278,5.702-1.592c1.306,1.01,1.651,2.485,0.949,4.166
			c-3.458,8.264-6.925,16.527-10.388,24.79c-0.583,1.396-1.213,2.776-1.742,4.193c-0.724,1.94-2.072,3.006-4.133,3.072
			c-1.898,0.061-3.299-1.015-4.135-3.056c-2.986-7.309-5.967-14.62-8.954-21.928c-0.104-0.261-0.233-0.513-0.427-0.93
			c-1.006,2.54-1.959,4.925-2.902,7.312c-2.072,5.244-4.152,10.485-6.203,15.737c-0.717,1.834-2.057,2.769-3.975,2.862
			c-1.852,0.088-3.375-0.953-4.135-2.771c-4.037-9.665-8.059-19.337-12.1-28.999c-0.557-1.335-0.751-2.619,0.278-3.804
			c1.099-1.267,2.513-1.821,4.159-1.527c1.322,0.239,2.105,1.159,2.57,2.39c1.732,4.579,3.48,9.153,5.217,13.731
			c1.269,3.344,2.533,6.689,3.802,10.031c0.1,0.26,0.231,0.507,0.421,0.915c1.19-3.021,2.318-5.885,3.449-8.753
			c2.053-5.214,4.096-10.437,6.168-15.646c0.883-2.223,2.893-3.203,4.959-2.465c1.211,0.432,1.912,1.345,2.375,2.517
			c3.146,7.973,6.307,15.938,9.465,23.905C184.188,198.593,184.261,198.729,184.388,199.008z"/>
		<path fill-rule="evenodd" clip-rule="evenodd" fill="#FFFFFF" d="M274.056,191.508c-3.585,0-7.169,0-10.754,0
			c-1.295,0-1.348,0.014-1.084,1.264c0.352,1.66,0.604,3.375,1.23,4.936c1.312,3.267,3.973,4.79,7.384,5.31
			c4.013,0.609,7.562-0.687,11.06-2.361c0.434-0.208,0.872-0.415,1.313-0.609c0.92-0.406,1.89-0.687,2.716,0.088
			c0.861,0.808,1.067,1.888,0.852,3.03c-0.232,1.235-1.059,2.029-2.078,2.657c-2.307,1.422-4.83,2.288-7.461,2.834
			c-4.432,0.921-8.812,0.69-12.982-1.12c-5.576-2.42-8.652-6.862-9.666-12.761c-0.738-4.293-0.52-8.549,1.131-12.634
			c2.414-5.969,6.793-9.509,13.221-10.365c5.086-0.678,9.709,0.332,13.468,4.04c2.623,2.587,3.962,5.845,4.446,9.449
			c0.178,1.305,0.191,2.633,0.211,3.952c0.023,1.664-0.621,2.289-2.252,2.291C281.224,191.511,277.64,191.508,274.056,191.508z
			 M280.474,187.757c-0.122-1.271-0.144-2.4-0.354-3.492c-0.621-3.239-2.158-5.88-5.505-6.849c-3.571-1.038-6.925-0.543-9.612,2.291
			c-1.736,1.827-2.469,4.12-2.751,6.571c-0.172,1.474-0.151,1.478,1.349,1.478c5.167,0.001,10.333,0.001,15.499,0.001
			C279.483,187.757,279.868,187.757,280.474,187.757z"/>
		<path fill-rule="evenodd" clip-rule="evenodd" fill="#FFFFFF" d="M228.005,190.297c0-4.843,0.057-9.683-0.02-14.523
			c-0.045-2.963,2.057-4.449,5.059-3.916c1.455,0.258,2.346,1.337,2.471,2.832c0.079,0.93,0.094,1.865,0.109,2.8
			c0.008,0.493,0.072,0.817,0.681,0.958c0.571,0.13,0.738-0.108,0.938-0.523c2.186-4.494,6.92-6.455,11.773-6.134
			c1.035,0.07,1.936,0.78,2.166,1.79c0.664,2.932-0.284,4.562-3.317,4.94c-1.688,0.212-3.397,0.364-5.044,0.765
			c-4.533,1.104-6.605,4.901-6.695,8.763c-0.131,5.581-0.051,11.167-0.035,16.752c0.008,3.482-2.512,4.562-5.26,4.058
			c-1.816-0.333-2.815-1.749-2.82-3.746C227.999,200.173,228.007,195.234,228.005,190.297z"/>
		<path fill-rule="evenodd" clip-rule="evenodd" fill="#FFFFFF" d="M216.72,190.266c0,4.908-0.017,9.815,0.008,14.724
			c0.008,1.682-0.562,2.995-2.184,3.623c-1.66,0.641-3.297,0.559-4.73-0.624c-0.93-0.765-1.143-1.873-1.145-2.978
			c-0.023-9.781-0.023-19.566-0.005-29.349c0.003-1.577,0.511-2.967,2.143-3.558c1.66-0.602,3.304-0.562,4.755,0.593
			c0.873,0.693,1.158,1.664,1.158,2.749C216.714,180.387,216.716,185.325,216.72,190.266z"/>
		<path fill-rule="evenodd" clip-rule="evenodd" fill="#FFFFFF" d="M217.507,159.138c-0.008,2.795-1.847,4.468-4.899,4.453
			c-2.995-0.013-4.775-1.732-4.763-4.592c0.012-2.625,1.916-4.28,4.894-4.259C215.665,154.761,217.514,156.466,217.507,159.138z"/>
		<path fill-rule="evenodd" clip-rule="evenodd" fill="#4C54A1" d="M280.474,187.757c-0.605,0-0.99,0-1.374,0
			c-5.166,0-10.332,0-15.499-0.001c-1.5,0-1.521-0.004-1.349-1.478c0.282-2.451,1.015-4.744,2.751-6.571
			c2.688-2.834,6.041-3.329,9.612-2.291c3.347,0.969,4.884,3.609,5.505,6.849C280.33,185.356,280.352,186.485,280.474,187.757z
			 M263.774,186.409c0.36,0.017,0.738,0.047,1.115,0.049c3.967,0.002,7.932,0,11.897,0c2.454,0,2.479-0.005,1.927-2.39
			c-0.668-2.888-2.223-5.053-5.301-5.566c-1.331-0.221-2.783-0.153-4.111,0.126C266.14,179.292,263.329,183.323,263.774,186.409z"/>
	</g>
</g>
</svg>
