<?xml version="1.0" encoding="utf-8"?>
<!-- Generator: Adobe Illustrator 16.0.0, SVG Export Plug-In . SVG Version: 6.00 Build 0)  -->
<!DOCTYPE svg PUBLIC "-//W3C//DTD SVG 1.1//EN" "http://www.w3.org/Graphics/SVG/1.1/DTD/svg11.dtd">
<svg version="1.1" id="Layer_1" xmlns="http://www.w3.org/2000/svg" xmlns:xlink="http://www.w3.org/1999/xlink" x="0px" y="0px"
	 width="200px" height="224px" viewBox="0 0 200 224" enable-background="new 0 0 200 224" xml:space="preserve">
<g>
	<g>
		<path fill-rule="evenodd" clip-rule="evenodd" fill="#43B883" d="M136.879,24.245c7.726,0,15.455,0,23.402,0
			c-19.549,33.549-39.029,66.979-58.588,100.55C82.055,91.272,62.495,57.879,42.979,24.56c0.131-0.37,0.345-0.3,0.504-0.302
			c7.326-0.026,14.654-0.047,21.981-0.065c0.271,0,0.539,0.043,0.811,0.067c0.95,0.518,1.231,1.554,1.703,2.39
			c2.426,4.326,4.976,8.588,7.484,12.866c2.618,4.474,5.17,8.992,7.839,13.441c2.455,4.097,4.849,8.236,7.183,12.408
			c2.402,4.289,4.989,8.476,7.426,12.744c1.182,2.072,2.515,4.046,3.707,6.45c6.014-10.199,11.676-20.297,17.53-30.283
			c0.24-0.384,0.44-0.793,0.649-1.195c4.288-7.251,8.368-14.624,12.654-21.875c0.241-0.381,0.437-0.788,0.647-1.184
			c0.938-1.523,1.841-3.066,2.696-4.639C136.061,24.892,136.39,24.502,136.879,24.245z"/>
		<path fill-rule="evenodd" clip-rule="evenodd" fill="#364A5E" d="M132.732,31.287c-3.708,6.476-7.412,12.95-11.128,19.418
			c-0.507,0.884-1.08,1.73-1.621,2.596c-0.343,0.271-0.561,0.604-0.551,1.058c-2.369,4.153-4.729,8.314-7.113,12.459
			c-2.74,4.768-5.504,9.521-8.259,14.28c-0.621,1.077-1.243,2.154-1.864,3.229c-0.152,0.264-0.249,0.67-0.614,0.616
			c-0.187-0.03-0.374-0.341-0.486-0.564c-1.618-3.252-3.655-6.259-5.46-9.4c-2.289-3.984-4.629-7.942-6.94-11.915
			c-1.577-2.715-3.2-5.407-4.704-8.164c-2.388-4.378-5.062-8.588-7.444-12.973c-1.243-2.289-2.646-4.513-3.954-6.779
			c-2.097-3.635-4.388-7.155-6.318-10.888c2.794-0.034,5.589-0.081,8.388-0.092c3.888-0.018,7.771,0.032,11.657-0.03
			c0.987-0.016,1.517,0.303,2.019,1.147c4.177,7.017,8.405,14.003,12.629,20.992c0.201,0.332,0.276,0.78,0.736,0.937
			c4.358-7.262,8.739-14.51,13.055-21.8c0.551-0.93,1.111-1.288,2.205-1.278c6.282,0.057,12.562,0.027,18.846,0.032
			c0.355,0,0.713,0.049,1.07,0.077c-1.199,1.995-2.396,3.988-3.596,5.982C132.94,30.498,132.723,30.833,132.732,31.287z"/>
	</g>
	<path fill-rule="evenodd" clip-rule="evenodd" fill="#363C5A" d="M146.042,21.802c-0.329-0.71,0.02-1.071,0.663-1.278
		C146.483,20.95,146.264,21.377,146.042,21.802z"/>
	<path fill-rule="evenodd" clip-rule="evenodd" fill="#363C5A" d="M129.98,49.663c-0.328-0.711,0.021-1.071,0.663-1.279
		C130.422,48.812,130.202,49.236,129.98,49.663z"/>
	<g>
		<path fill-rule="evenodd" clip-rule="evenodd" fill="#364A5E" d="M37.553,180.13c2.448-8.073,4.8-15.825,7.141-23.582
			c1.894-6.274,3.863-12.524,5.615-18.836c0.769-2.769,2.533-3.614,4.937-2.915c2.492,0.722,3.272,2.583,2.461,5.196
			c-5.191,16.685-10.368,33.377-15.427,50.104c-0.771,2.546-1.92,3.969-4.722,4.014c-2.925,0.05-4.038-1.741-4.759-4.089
			c-4.87-15.809-9.73-31.625-14.589-47.438c-0.305-0.993-0.432-2.061-0.862-2.988c-1.132-2.466,0.152-3.889,2.14-4.766
			c2.326-1.021,4.259,0,5.043,2.561C28.855,151.497,33.134,165.618,37.553,180.13z"/>
		<path fill-rule="evenodd" clip-rule="evenodd" fill="#364A5E" d="M113.231,176.985c-2.629,0-5.264,0.063-7.892-0.026
			c-1.401-0.047-1.767,0.418-1.644,1.799c0.368,4.243,3.073,7.573,7.385,8.2c3.298,0.482,6.679,0.648,9.674-1.553
			c1.829-1.346,3.921-1.9,5.479,0.365c1.609,2.339,0.487,4.338-1.569,5.605c-6.18,3.806-12.799,3.756-19.279,1.115
			c-5.985-2.441-8.957-7.402-9.254-13.78c-0.171-3.768-0.363-7.554,0.285-11.33c1.44-8.373,7.912-13.396,17.127-13.156
			c7.268,0.19,13.637,6.321,14.521,13.985c0.653,5.629-2.135,8.736-7.884,8.771C117.863,176.997,115.55,176.985,113.231,176.985z"/>
		<path fill-rule="evenodd" clip-rule="evenodd" fill="#364A5E" d="M58.621,168.591c0-3.368,0.042-6.74-0.014-10.107
			c-0.044-2.693,1.528-3.93,3.89-3.902c2.358,0.023,3.806,1.229,3.747,3.988c-0.131,6.208-0.058,12.422-0.037,18.636
			c0.021,5.562,3.646,9.812,8.383,9.882c4.742,0.074,8.577-4.129,8.644-9.677c0.077-6.423,0.08-12.847-0.013-19.268
			c-0.039-2.515,1.46-3.417,3.471-3.567c2.058-0.153,4.055,0.801,4.033,3.041c-0.075,8.085,0.994,16.232-0.559,24.233
			c-1.584,8.18-8.988,13.021-17.873,12.194c-7.106-0.663-13.459-7.754-13.658-15.348C58.551,175.332,58.621,171.961,58.621,168.591z
			"/>
		<path fill-rule="evenodd" clip-rule="evenodd" fill="#364A5E" d="M171.416,194.154c-2.477,0.106-5.644-0.444-8.563-2.05
			c-1.196-0.661-2.315-1.426-3.113-2.597c-1.11-1.621-0.906-3.207,0.249-4.609c1.243-1.5,2.796-1.259,4.192-0.195
			c3.198,2.438,6.729,3.161,10.658,2.462c1.898-0.337,3.456-0.978,3.915-3.023c0.526-2.351-0.367-4.261-2.488-5.208
			c-2.448-1.095-5.088-1.758-7.623-2.672c-3.608-1.298-6.977-2.94-8.278-6.975c-2.149-6.644,1.935-13.526,9.167-14.849
			c4.131-0.757,8.408-0.555,12.326,1.296c1.979,0.934,4.07,2.083,2.732,5.017c-1.229,2.693-3.135,2.757-5.419,1.535
			c-2.314-1.242-4.78-1.426-7.329-1.16c-2.405,0.254-4.224,1.235-4.667,3.842c-0.453,2.674,1.243,3.789,3.394,4.5
			c2.077,0.682,4.188,1.27,6.254,1.976c6.819,2.336,10.234,7.085,9.386,12.989c-0.852,5.923-5.448,9.437-12.71,9.722
			C173.079,194.169,172.657,194.154,171.416,194.154z"/>
		<path fill-rule="evenodd" clip-rule="evenodd" fill="#364A5E" d="M154.027,178.548c0,6.104-0.056,12.21,0.03,18.314
			c0.029,2.243-0.36,4.412-0.943,6.509c-1.761,6.304-6.45,8.793-12.884,7.099c-1.193-0.314-1.346-1.086-1.388-2.113
			c-0.071-1.661,0.571-2.887,2.127-3.47c5.244-1.97,5.468-2.246,5.471-7.756c0.007-12.629,0.061-25.259-0.042-37.888
			c-0.022-2.782,0.801-4.523,3.712-4.711c2.701-0.171,3.912,1.36,3.915,4.756C154.027,165.706,154.025,172.127,154.027,178.548z"/>
		<path fill-rule="evenodd" clip-rule="evenodd" fill="#374A5F" d="M140.83,189.387c-0.014,2.81-1.866,4.676-4.65,4.685
			c-2.64,0.008-4.836-2.072-4.891-4.629c-0.058-2.697,2.204-4.917,4.967-4.882C138.926,184.601,140.846,186.627,140.83,189.387z"/>
		<path fill-rule="evenodd" clip-rule="evenodd" fill="#374A5E" d="M150.297,137.181c2.513,0.059,4.447,2.123,4.39,4.68
			c-0.061,2.688-1.823,4.275-4.671,4.204c-2.659-0.067-4.653-2.041-4.557-4.51C145.554,139.166,147.816,137.122,150.297,137.181z"/>
		<path fill-rule="evenodd" clip-rule="evenodd" fill="#FEFEFE" d="M111.967,170.665c-1.568,0-3.141,0-4.71,0
			c-4.014,0-4.242-0.307-3.101-4.175c1.045-3.531,4.989-6.063,8.793-5.649c3.878,0.427,7.312,3.862,7.596,7.547
			c0.111,1.479-0.169,2.405-1.987,2.306C116.366,170.567,114.165,170.662,111.967,170.665z"/>
	</g>
</g>
</svg>
